<?xml version="1.0" encoding="utf-8"?>
<!-- Generator: Adobe Illustrator 16.0.3, SVG Export Plug-In . SVG Version: 6.00 Build 0)  -->
<!DOCTYPE svg PUBLIC "-//W3C//DTD SVG 1.1//EN" "http://www.w3.org/Graphics/SVG/1.1/DTD/svg11.dtd">
<svg version="1.1" id="Ebene_1" xmlns="http://www.w3.org/2000/svg" xmlns:xlink="http://www.w3.org/1999/xlink" x="0px" y="0px"
	 width="100px" height="100px" viewBox="0 0 100 100" enable-background="new 0 0 100 100" xml:space="preserve">
<path fill-rule="evenodd" clip-rule="evenodd" fill="none" stroke="#DBDCDB" stroke-width="2" stroke-miterlimit="10" d="
	M85.687,60.039c-0.004,0.155-0.013,0.29-0.021,0.403c-0.009,0.111-0.018,0.2-0.025,0.269c-0.008,0.065-0.015,0.109-0.017,0.13
	c-0.022-0.007-0.071-0.021-0.143-0.045c-0.073-0.024-0.169-0.057-0.286-0.1c-0.118-0.042-0.259-0.095-0.42-0.157
	c-0.162-0.063-0.344-0.137-0.546-0.223c-0.201-0.085-0.423-0.183-0.661-0.292c-0.238-0.111-0.494-0.233-0.767-0.369
	c-0.271-0.137-0.562-0.287-0.865-0.452c-0.303-0.164-0.621-0.343-0.952-0.536c-0.331-0.196-0.676-0.405-1.031-0.634
	c-0.356-0.227-0.725-0.47-1.102-0.73c-0.378-0.261-0.766-0.538-1.162-0.835s-0.802-0.611-1.214-0.946
	c-0.411-0.334-0.831-0.688-1.255-1.062c-0.425-0.375-0.854-0.769-1.289-1.185c-0.434-0.415-0.871-0.853-1.311-1.312
	c-0.44-0.458-0.883-0.939-1.326-1.443c-0.444-0.505-0.846-0.994-1.207-1.472c-0.361-0.477-0.683-0.937-0.969-1.386
	c-0.286-0.448-0.534-0.881-0.751-1.301c-0.216-0.42-0.4-0.824-0.553-1.216c-0.153-0.39-0.276-0.767-0.373-1.129
	c-0.096-0.362-0.167-0.71-0.214-1.046c-0.046-0.333-0.07-0.653-0.073-0.959s0.014-0.599,0.048-0.875
	c0.032-0.278,0.084-0.541,0.148-0.789c0.064-0.25,0.143-0.484,0.231-0.704c0.089-0.222,0.189-0.428,0.295-0.62
	c0.106-0.192,0.221-0.371,0.338-0.535c0.118-0.162,0.241-0.313,0.364-0.448c0.122-0.136,0.246-0.257,0.368-0.365
	c0.121-0.106,0.24-0.198,0.354-0.277c0.114-0.079,0.222-0.144,0.321-0.194c0.038-0.021,0.076-0.039,0.115-0.057
	c0.038-0.019,0.077-0.035,0.115-0.052c0.039-0.017,0.078-0.033,0.115-0.05c0.039-0.014,0.077-0.028,0.116-0.043
	c0.038-0.015,0.077-0.027,0.115-0.041c0.038-0.012,0.078-0.024,0.117-0.037c0.038-0.01,0.076-0.022,0.115-0.032
	c0.038-0.011,0.077-0.02,0.116-0.029c0.039-0.008,0.078-0.018,0.116-0.024c0.039-0.008,0.078-0.017,0.117-0.022
	s0.076-0.013,0.115-0.019c0.039-0.005,0.078-0.01,0.117-0.015c0.039-0.004,0.078-0.008,0.117-0.011s0.078-0.007,0.117-0.009
	s0.077-0.003,0.115-0.005c0.039-0.001,0.078-0.002,0.116-0.002c0.275,0.001,0.548,0.025,0.819,0.074
	c0.271,0.047,0.54,0.116,0.807,0.206c0.266,0.089,0.529,0.198,0.789,0.322c0.259,0.124,0.514,0.265,0.766,0.417
	c0.251,0.154,0.497,0.32,0.737,0.496c0.241,0.177,0.478,0.362,0.705,0.555c0.229,0.193,0.45,0.393,0.666,0.597
	c0.215,0.203,0.424,0.41,0.623,0.619c0.198,0.207,0.391,0.415,0.573,0.621c0.182,0.205,0.355,0.408,0.519,0.607
	c0.164,0.198,0.316,0.392,0.46,0.575c0.143,0.185,0.275,0.36,0.396,0.524s0.229,0.315,0.326,0.454c0.097,0.137,0.18,0.26,0.25,0.364
	s0.128,0.193,0.171,0.259c0.042,0.066,0.07,0.112,0.084,0.134c0.402,0.664,0.774,1.313,1.12,1.944
	c0.347,0.631,0.665,1.244,0.961,1.841c0.294,0.595,0.564,1.174,0.811,1.733c0.247,0.559,0.472,1.101,0.677,1.624
	c0.204,0.522,0.388,1.026,0.552,1.512c0.165,0.486,0.311,0.952,0.44,1.399c0.129,0.446,0.242,0.874,0.34,1.281
	c0.098,0.408,0.182,0.797,0.253,1.164c0.07,0.368,0.129,0.716,0.177,1.042c0.047,0.328,0.084,0.636,0.111,0.921
	c0.028,0.286,0.049,0.551,0.061,0.794c0.014,0.243,0.02,0.465,0.021,0.665C85.695,59.703,85.692,59.882,85.687,60.039z
	 M77.31,34.446c-0.033,0.103-0.073,0.203-0.124,0.303c-0.05,0.1-0.107,0.197-0.175,0.296c-0.068,0.097-0.145,0.193-0.231,0.288
	c-0.086,0.094-0.183,0.187-0.288,0.277c-0.106,0.092-0.224,0.18-0.352,0.268c-0.037,0.025-0.073,0.05-0.111,0.074
	c-0.037,0.023-0.076,0.048-0.113,0.069c-0.038,0.022-0.077,0.044-0.116,0.064c-0.04,0.021-0.079,0.041-0.12,0.061
	c-0.04,0.02-0.08,0.038-0.121,0.057c-0.041,0.016-0.083,0.033-0.125,0.049c-0.041,0.017-0.083,0.033-0.127,0.047
	c-0.043,0.015-0.086,0.029-0.129,0.041c-0.043,0.014-0.087,0.027-0.132,0.037C75,36.39,74.955,36.399,74.91,36.41
	c-0.045,0.009-0.091,0.019-0.137,0.026c-0.046,0.009-0.092,0.017-0.14,0.022c-0.046,0.009-0.094,0.014-0.143,0.019
	c-0.047,0.004-0.097,0.009-0.145,0.012c-0.049,0.003-0.098,0.005-0.146,0.007c-0.05,0.002-0.1,0.002-0.15,0.002
	c-0.124,0-0.252-0.005-0.382-0.017c-0.128-0.01-0.26-0.026-0.395-0.048s-0.272-0.048-0.41-0.082
	c-0.14-0.033-0.281-0.072-0.425-0.116c-0.144-0.045-0.291-0.094-0.438-0.151c-0.149-0.056-0.301-0.119-0.452-0.188
	c-0.153-0.068-0.309-0.143-0.466-0.224s-0.316-0.168-0.479-0.26c-0.162-0.095-0.325-0.193-0.491-0.3
	c-0.166-0.107-0.334-0.22-0.504-0.339c-0.171-0.119-0.342-0.244-0.517-0.378c-0.175-0.133-0.351-0.271-0.529-0.418
	c-0.178-0.146-0.358-0.3-0.54-0.459c-0.182-0.16-0.365-0.327-0.551-0.502s-0.372-0.356-0.563-0.545
	c-0.188-0.188-0.381-0.385-0.573-0.59c-0.191-0.201-0.371-0.4-0.539-0.597s-0.325-0.391-0.471-0.582s-0.28-0.379-0.404-0.564
	c-0.124-0.184-0.237-0.365-0.341-0.543c-0.103-0.179-0.196-0.353-0.279-0.523s-0.157-0.339-0.222-0.501
	c-0.064-0.164-0.12-0.322-0.166-0.478c-0.046-0.155-0.084-0.305-0.114-0.452c-0.028-0.146-0.05-0.288-0.063-0.425
	c-0.013-0.136-0.019-0.269-0.017-0.396c0.003-0.126,0.013-0.249,0.028-0.365c0.017-0.117,0.041-0.228,0.069-0.334
	c0.031-0.106,0.068-0.206,0.111-0.3s0.091-0.183,0.146-0.265c0.054-0.082,0.114-0.158,0.179-0.228
	c0.065-0.07,0.137-0.133,0.211-0.19c0.029-0.02,0.057-0.041,0.085-0.06c0.029-0.019,0.058-0.038,0.088-0.056
	c0.029-0.017,0.06-0.035,0.09-0.052s0.062-0.033,0.093-0.048c0.03-0.015,0.063-0.03,0.096-0.043c0.031-0.014,0.063-0.027,0.096-0.04
	c0.034-0.013,0.067-0.024,0.1-0.036c0.035-0.011,0.069-0.021,0.104-0.031c0.034-0.01,0.069-0.02,0.104-0.028
	c0.035-0.009,0.071-0.016,0.107-0.024c0.036-0.007,0.072-0.014,0.108-0.019c0.037-0.007,0.075-0.013,0.112-0.017
	c0.038-0.005,0.074-0.009,0.112-0.012c0.038-0.004,0.076-0.007,0.115-0.009c0.039-0.002,0.078-0.004,0.117-0.005
	c0.04-0.001,0.079-0.002,0.119-0.002c0.191,0.001,0.392,0.015,0.596,0.041c0.206,0.026,0.418,0.065,0.633,0.116
	c0.217,0.05,0.438,0.112,0.663,0.185c0.225,0.072,0.454,0.156,0.685,0.25c0.23,0.092,0.465,0.195,0.701,0.306
	c0.234,0.111,0.472,0.231,0.711,0.358c0.237,0.127,0.475,0.263,0.712,0.404c0.238,0.142,0.475,0.29,0.71,0.444
	c0.236,0.155,0.469,0.315,0.701,0.479c0.229,0.165,0.458,0.334,0.683,0.507c0.224,0.173,0.443,0.349,0.658,0.529
	c0.217,0.18,0.426,0.361,0.631,0.545c0.205,0.185,0.401,0.37,0.594,0.557c0.19,0.187,0.375,0.375,0.551,0.562
	c0.176,0.187,0.343,0.375,0.501,0.56c0.158,0.187,0.307,0.372,0.445,0.554c0.072,0.095,0.143,0.19,0.21,0.289
	c0.069,0.097,0.135,0.197,0.197,0.296c0.063,0.101,0.123,0.202,0.181,0.304c0.058,0.103,0.111,0.205,0.162,0.309
	c0.049,0.104,0.096,0.208,0.138,0.313c0.041,0.104,0.078,0.209,0.11,0.313s0.058,0.212,0.079,0.316
	c0.021,0.105,0.038,0.211,0.047,0.316c0.01,0.104,0.014,0.21,0.01,0.314c-0.004,0.104-0.015,0.208-0.032,0.311
	C77.369,34.242,77.343,34.345,77.31,34.446z M63.837,25.348c-0.044,0.104-0.096,0.202-0.156,0.293
	c-0.061,0.091-0.129,0.175-0.206,0.25c-0.046,0.046-0.093,0.089-0.143,0.132c-0.05,0.042-0.101,0.082-0.153,0.12
	c-0.054,0.039-0.108,0.075-0.165,0.11c-0.057,0.035-0.114,0.068-0.174,0.101s-0.12,0.063-0.184,0.091
	c-0.063,0.029-0.126,0.057-0.192,0.082c-0.064,0.027-0.132,0.05-0.201,0.073c-0.067,0.023-0.136,0.045-0.207,0.065
	c-0.07,0.021-0.143,0.039-0.216,0.057c-0.073,0.017-0.146,0.033-0.222,0.047s-0.151,0.028-0.228,0.039
	c-0.078,0.013-0.154,0.023-0.233,0.033s-0.159,0.018-0.239,0.024c-0.08,0.007-0.161,0.013-0.242,0.017
	c-0.082,0.005-0.164,0.008-0.246,0.011c-0.083,0.001-0.167,0.003-0.251,0.003c-0.126-0.001-0.254-0.003-0.383-0.008
	c-0.128-0.005-0.257-0.013-0.387-0.023s-0.26-0.021-0.39-0.036c-0.131-0.014-0.26-0.029-0.389-0.048
	c-0.131-0.018-0.26-0.039-0.389-0.06c-0.128-0.021-0.256-0.045-0.382-0.071c-0.129-0.025-0.255-0.052-0.379-0.081
	c-0.125-0.029-0.25-0.059-0.372-0.091c-0.121-0.031-0.24-0.063-0.358-0.098c-0.118-0.033-0.235-0.069-0.35-0.106
	c-0.113-0.036-0.226-0.074-0.334-0.112c-0.108-0.039-0.217-0.078-0.32-0.119c-0.104-0.041-0.203-0.082-0.301-0.124
	c-0.099-0.042-0.191-0.084-0.282-0.128c-0.09-0.043-0.179-0.086-0.261-0.131c-0.083-0.044-0.161-0.088-0.235-0.133
	c-0.425-0.255-0.822-0.513-1.192-0.775c-0.371-0.26-0.715-0.524-1.032-0.79c-0.319-0.266-0.614-0.532-0.884-0.798
	s-0.518-0.534-0.742-0.799c-0.226-0.266-0.428-0.531-0.611-0.793c-0.183-0.262-0.346-0.522-0.488-0.778
	c-0.145-0.256-0.269-0.508-0.377-0.755c-0.107-0.248-0.199-0.49-0.273-0.727c-0.075-0.236-0.134-0.465-0.179-0.687
	c-0.044-0.223-0.075-0.437-0.094-0.643c-0.018-0.206-0.022-0.403-0.018-0.59c0.007-0.187,0.022-0.364,0.051-0.53
	c0.024-0.165,0.061-0.319,0.105-0.46c0.043-0.141,0.096-0.27,0.154-0.385c0.059-0.115,0.123-0.216,0.193-0.301
	c0.07-0.086,0.145-0.157,0.224-0.211c0.016-0.009,0.03-0.02,0.047-0.029c0.016-0.01,0.032-0.019,0.049-0.028
	c0.017-0.009,0.035-0.018,0.053-0.026c0.019-0.007,0.035-0.016,0.055-0.023c0.02-0.007,0.038-0.014,0.059-0.021
	c0.02-0.007,0.04-0.013,0.062-0.02c0.021-0.006,0.041-0.012,0.063-0.018c0.021-0.004,0.044-0.01,0.066-0.015
	c0.022-0.005,0.046-0.01,0.068-0.014c0.023-0.004,0.048-0.009,0.073-0.012c0.023-0.004,0.049-0.007,0.073-0.01
	c0.026-0.003,0.052-0.005,0.077-0.008c0.025-0.001,0.053-0.003,0.079-0.005c0.027-0.002,0.055-0.004,0.082-0.004
	c0.027-0.001,0.057-0.002,0.085-0.003c0.028,0,0.058-0.001,0.087-0.001c0.121,0,0.249,0.006,0.383,0.016
	c0.133,0.01,0.273,0.025,0.417,0.045c0.145,0.019,0.295,0.044,0.449,0.073c0.154,0.028,0.313,0.062,0.476,0.099
	c0.162,0.038,0.327,0.078,0.495,0.123c0.17,0.044,0.341,0.093,0.516,0.145c0.173,0.053,0.351,0.109,0.528,0.168
	c0.179,0.059,0.359,0.121,0.54,0.186c0.182,0.066,0.363,0.134,0.546,0.206c0.183,0.071,0.364,0.145,0.547,0.222
	c0.183,0.076,0.364,0.155,0.545,0.236c0.181,0.081,0.361,0.164,0.538,0.25c0.179,0.085,0.355,0.173,0.529,0.262
	c0.174,0.089,0.346,0.18,0.514,0.273c0.168,0.091,0.332,0.186,0.494,0.28c0.161,0.095,0.319,0.19,0.474,0.288
	c0.338,0.214,0.656,0.427,0.959,0.638c0.301,0.21,0.586,0.419,0.853,0.627c0.268,0.208,0.519,0.413,0.753,0.616
	c0.232,0.202,0.451,0.403,0.653,0.602c0.202,0.197,0.389,0.393,0.561,0.584c0.172,0.192,0.328,0.381,0.47,0.567
	c0.143,0.186,0.271,0.367,0.386,0.545c0.114,0.178,0.215,0.353,0.303,0.522c0.087,0.17,0.162,0.335,0.226,0.497
	c0.062,0.161,0.112,0.317,0.151,0.468s0.065,0.297,0.082,0.438c0.015,0.141,0.021,0.276,0.017,0.405
	c-0.006,0.129-0.021,0.252-0.046,0.37C63.914,25.132,63.88,25.243,63.837,25.348z M50.672,22.942
	c0.308,0.261,0.586,0.534,0.827,0.816c0.242,0.282,0.448,0.575,0.616,0.878c0.169,0.301,0.299,0.614,0.387,0.935
	s0.133,0.652,0.133,0.992s-0.045,0.688-0.141,1.045c-0.093,0.357-0.237,0.722-0.433,1.096c-0.008,0.011-0.023,0.037-0.048,0.074
	c-0.023,0.037-0.056,0.086-0.097,0.144c-0.041,0.06-0.091,0.127-0.151,0.205c-0.059,0.076-0.126,0.161-0.204,0.252
	c-0.077,0.091-0.164,0.189-0.261,0.292c-0.097,0.104-0.202,0.211-0.318,0.321c-0.115,0.111-0.242,0.225-0.378,0.339
	c-0.136,0.115-0.282,0.23-0.438,0.347c-0.157,0.115-0.324,0.232-0.502,0.345c-0.179,0.113-0.367,0.226-0.566,0.333
	c-0.2,0.108-0.411,0.211-0.634,0.31s-0.456,0.191-0.702,0.277c-0.244,0.084-0.501,0.162-0.77,0.231s-0.549,0.13-0.843,0.179
	c-0.292,0.05-0.597,0.089-0.914,0.115c-0.318,0.025-0.648,0.04-0.991,0.039c-0.105,0-0.211-0.001-0.319-0.004
	c-0.107-0.005-0.216-0.009-0.326-0.015c-0.108-0.005-0.221-0.013-0.332-0.021c-0.112-0.011-0.226-0.021-0.34-0.033
	c-0.115-0.012-0.229-0.026-0.347-0.042s-0.235-0.031-0.354-0.05c-0.12-0.02-0.24-0.039-0.362-0.062
	c-0.121-0.023-0.244-0.048-0.368-0.073s-0.249-0.055-0.375-0.083c-0.128-0.031-0.255-0.062-0.384-0.096
	c-0.129-0.033-0.258-0.068-0.391-0.105c-0.131-0.038-0.264-0.078-0.396-0.119c-0.134-0.041-0.269-0.086-0.404-0.131
	c-0.137-0.046-0.274-0.093-0.413-0.145c-0.139-0.049-0.279-0.102-0.42-0.155c-0.142-0.056-0.284-0.111-0.428-0.171
	c-0.289-0.118-0.597-0.246-0.92-0.383c-0.324-0.138-0.664-0.283-1.019-0.438c-0.354-0.155-0.72-0.317-1.099-0.487
	c-0.378-0.17-0.767-0.347-1.165-0.529c-0.397-0.184-0.803-0.374-1.216-0.566c-0.412-0.193-0.83-0.392-1.252-0.594
	c-0.421-0.202-0.845-0.409-1.271-0.618c-0.426-0.209-0.852-0.421-1.276-0.635c-0.424-0.213-0.847-0.428-1.265-0.644
	c-0.418-0.216-0.833-0.432-1.239-0.648c-0.407-0.216-0.808-0.431-1.199-0.645c-0.39-0.215-0.772-0.427-1.143-0.636
	c-0.369-0.21-0.726-0.417-1.068-0.622c-0.343-0.203-0.672-0.403-0.983-0.599c-0.311-0.195-0.604-0.386-0.879-0.57
	c-0.274-0.185-0.528-0.363-0.761-0.536c0.017-0.01,0.053-0.033,0.108-0.064c0.055-0.032,0.129-0.074,0.223-0.125
	c0.092-0.05,0.205-0.11,0.334-0.176c0.131-0.066,0.28-0.141,0.447-0.219c0.167-0.079,0.353-0.164,0.557-0.252
	c0.206-0.089,0.428-0.182,0.669-0.277c0.241-0.096,0.5-0.194,0.777-0.293c0.278-0.1,0.573-0.2,0.887-0.301
	c0.314-0.099,0.646-0.199,0.995-0.296c0.35-0.098,0.716-0.194,1.101-0.287c0.384-0.092,0.787-0.182,1.207-0.267
	c0.42-0.084,0.858-0.164,1.313-0.237c0.452-0.073,0.922-0.14,1.41-0.199c0.486-0.06,0.99-0.111,1.512-0.153
	c0.522-0.042,1.06-0.075,1.614-0.098s1.126-0.034,1.714-0.033c0.6,0,1.201,0.018,1.802,0.048c0.599,0.031,1.196,0.078,1.789,0.138
	s1.181,0.135,1.762,0.224c0.581,0.089,1.152,0.191,1.716,0.308c0.563,0.117,1.113,0.247,1.65,0.389
	c0.536,0.143,1.06,0.299,1.564,0.467s0.993,0.349,1.459,0.542c0.467,0.194,0.911,0.399,1.332,0.616
	c0.422,0.216,0.818,0.445,1.186,0.684C50.023,22.43,50.364,22.681,50.672,22.942z M22.962,45.075
	c0.721-0.713,1.441-1.385,2.157-2.018c0.714-0.633,1.424-1.226,2.122-1.78c0.698-0.556,1.387-1.072,2.06-1.555
	s1.331-0.928,1.968-1.343c0.638-0.412,1.255-0.793,1.848-1.141c0.591-0.35,1.159-0.667,1.696-0.954
	c0.536-0.29,1.043-0.548,1.518-0.78c0.473-0.231,0.91-0.438,1.309-0.616c0.399-0.18,0.758-0.336,1.072-0.465
	c0.315-0.133,0.586-0.24,0.808-0.329c0.109-0.043,0.218-0.084,0.326-0.125c0.107-0.04,0.214-0.078,0.321-0.115
	c0.106-0.036,0.212-0.071,0.317-0.106c0.104-0.032,0.208-0.065,0.313-0.097c0.104-0.03,0.207-0.06,0.309-0.088
	c0.102-0.026,0.203-0.054,0.304-0.078c0.101-0.025,0.2-0.049,0.299-0.071c0.1-0.021,0.196-0.041,0.294-0.062
	c0.099-0.02,0.195-0.037,0.291-0.054c0.095-0.017,0.19-0.033,0.285-0.046c0.094-0.015,0.188-0.028,0.281-0.04
	c0.092-0.011,0.186-0.021,0.276-0.031c0.088-0.008,0.175-0.016,0.261-0.022c0.086-0.006,0.172-0.013,0.256-0.017
	c0.085-0.004,0.169-0.008,0.252-0.01s0.167-0.003,0.248-0.003c0.35,0,0.683,0.017,1.002,0.046c0.32,0.03,0.626,0.074,0.92,0.13
	c0.292,0.056,0.573,0.124,0.841,0.202s0.525,0.167,0.771,0.263c0.245,0.097,0.479,0.201,0.702,0.313
	c0.225,0.11,0.437,0.227,0.64,0.348c0.201,0.121,0.393,0.246,0.573,0.374s0.351,0.258,0.51,0.389
	c0.161,0.129,0.312,0.261,0.451,0.39c0.139,0.129,0.27,0.257,0.39,0.382c0.119,0.124,0.229,0.245,0.329,0.361
	c0.1,0.114,0.19,0.226,0.271,0.329c0.082,0.102,0.153,0.198,0.214,0.284c0.063,0.086,0.115,0.162,0.159,0.229
	s0.078,0.12,0.104,0.161c0.025,0.042,0.042,0.07,0.051,0.084c0.449,0.699,0.803,1.38,1.072,2.04c0.268,0.661,0.45,1.305,0.557,1.927
	c0.106,0.621,0.138,1.224,0.104,1.807c-0.033,0.583-0.134,1.146-0.291,1.689c-0.156,0.541-0.368,1.064-0.626,1.566
	c-0.259,0.503-0.563,0.984-0.902,1.446c-0.339,0.46-0.715,0.901-1.117,1.32c-0.401,0.42-0.829,0.818-1.272,1.196
	s-0.904,0.733-1.369,1.069s-0.936,0.648-1.403,0.941c-0.467,0.291-0.93,0.56-1.379,0.809c-0.449,0.248-0.885,0.474-1.295,0.678
	c-0.412,0.203-0.798,0.384-1.15,0.543c-0.353,0.158-0.67,0.293-0.944,0.407c-0.274,0.113-0.505,0.204-0.681,0.271
	c-0.175,0.068-0.296,0.112-0.354,0.134c-0.945,0.441-1.873,0.858-2.784,1.25c-0.912,0.393-1.807,0.762-2.683,1.107
	c-0.877,0.346-1.735,0.67-2.576,0.972c-0.839,0.303-1.66,0.585-2.461,0.846c-0.803,0.263-1.584,0.505-2.345,0.729
	c-0.761,0.224-1.501,0.43-2.22,0.619c-0.718,0.189-1.415,0.362-2.09,0.521c-0.674,0.157-1.327,0.3-1.955,0.428
	c-0.628,0.127-1.233,0.241-1.814,0.344c-0.581,0.102-1.136,0.192-1.667,0.271c-0.531,0.078-1.037,0.146-1.516,0.206
	c-0.479,0.058-0.932,0.106-1.357,0.147c-0.425,0.041-0.824,0.074-1.194,0.101c-0.37,0.026-0.713,0.047-1.025,0.062
	c-0.313,0.016-0.597,0.024-0.851,0.03c-0.254,0.007-0.479,0.009-0.672,0.009c-0.036,0-0.071,0-0.104-0.001
	c-0.034,0-0.066,0-0.098-0.001c-0.032,0-0.063,0-0.091,0c-0.03-0.001-0.057-0.001-0.084-0.002c-0.027,0-0.053-0.001-0.078-0.001
	c-0.025-0.001-0.049-0.001-0.072-0.001c-0.022,0-0.044-0.001-0.064-0.002c-0.021,0-0.04-0.001-0.058-0.001s-0.036-0.002-0.053-0.003
	c-0.016-0.001-0.031-0.002-0.045-0.002c-0.014,0-0.026-0.001-0.037-0.001c-0.013-0.001-0.023-0.002-0.032-0.002
	c0.541-1.291,1.113-2.526,1.712-3.71c0.599-1.184,1.225-2.315,1.871-3.396c0.646-1.082,1.313-2.113,1.996-3.096
	c0.682-0.983,1.378-1.918,2.084-2.808c0.705-0.888,1.419-1.73,2.137-2.528C21.519,46.544,22.241,45.789,22.962,45.075z
	 M52.146,51.897c0.099-0.632,0.217-1.218,0.354-1.763c0.138-0.543,0.293-1.045,0.463-1.508c0.171-0.462,0.357-0.885,0.556-1.271
	c0.199-0.387,0.409-0.737,0.631-1.056c0.222-0.317,0.453-0.602,0.692-0.857c0.239-0.255,0.485-0.48,0.737-0.68
	c0.25-0.2,0.508-0.373,0.766-0.523s0.519-0.277,0.779-0.385c0.26-0.106,0.521-0.195,0.778-0.265
	c0.256-0.071,0.511-0.125,0.759-0.165c0.248-0.041,0.491-0.068,0.726-0.085c0.235-0.018,0.461-0.025,0.677-0.024
	c0.037,0,0.073,0,0.11,0c0.037,0.001,0.074,0.003,0.108,0.004c0.036,0,0.072,0.001,0.108,0.002c0.035,0.001,0.07,0.002,0.104,0.004
	c0.035,0.001,0.069,0.003,0.103,0.004c0.034,0.002,0.067,0.004,0.101,0.006c0.032,0.001,0.064,0.005,0.098,0.006
	c0.031,0.003,0.063,0.004,0.095,0.006c0.032,0.003,0.063,0.006,0.093,0.008c0.031,0.004,0.061,0.006,0.089,0.008
	c0.03,0.003,0.059,0.005,0.088,0.007c0.027,0.003,0.057,0.005,0.084,0.008c0.026,0.003,0.055,0.006,0.08,0.008
	c0.027,0.003,0.054,0.005,0.079,0.009c0.025,0.002,0.05,0.005,0.075,0.008c0.024,0.003,0.049,0.005,0.072,0.007
	c0.632,0.064,1.22,0.175,1.768,0.321c0.547,0.147,1.052,0.334,1.519,0.553c0.468,0.22,0.896,0.473,1.292,0.751
	c0.394,0.279,0.753,0.587,1.079,0.916c0.327,0.329,0.623,0.679,0.889,1.045c0.266,0.367,0.503,0.749,0.714,1.143
	c0.211,0.393,0.396,0.797,0.558,1.206s0.302,0.822,0.42,1.235c0.119,0.412,0.218,0.824,0.301,1.229
	c0.083,0.407,0.148,0.806,0.199,1.194c0.053,0.387,0.091,0.762,0.118,1.12s0.044,0.698,0.053,1.016
	c0.01,0.317,0.011,0.61,0.007,0.877c-0.003,0.265-0.011,0.5-0.021,0.701c-0.009,0.202-0.021,0.368-0.031,0.496
	c-0.01,0.126-0.018,0.213-0.022,0.253c-0.053,1.238-0.143,2.438-0.265,3.604c-0.121,1.166-0.272,2.297-0.452,3.394
	c-0.18,1.096-0.385,2.156-0.613,3.182c-0.229,1.023-0.479,2.013-0.748,2.968c-0.27,0.953-0.556,1.871-0.856,2.752
	c-0.3,0.881-0.613,1.727-0.935,2.534s-0.651,1.579-0.986,2.313c-0.334,0.734-0.672,1.431-1.01,2.091
	c-0.338,0.658-0.675,1.281-1.008,1.865c-0.331,0.584-0.657,1.13-0.975,1.638c-0.316,0.507-0.624,0.977-0.917,1.408
	c-0.293,0.431-0.57,0.822-0.831,1.176c-0.259,0.354-0.499,0.668-0.716,0.943c-0.216,0.274-0.409,0.511-0.574,0.705
	c-0.164,0.196-0.301,0.354-0.405,0.47c-0.104,0.115-0.174,0.192-0.207,0.229c-0.015-0.019-0.045-0.06-0.09-0.123
	c-0.046-0.063-0.105-0.149-0.179-0.264c-0.072-0.113-0.159-0.252-0.256-0.42c-0.098-0.167-0.205-0.362-0.325-0.589
	c-0.119-0.226-0.248-0.482-0.385-0.772c-0.138-0.291-0.283-0.614-0.437-0.972c-0.153-0.358-0.313-0.752-0.478-1.184
	c-0.165-0.432-0.335-0.9-0.51-1.411c-0.173-0.509-0.351-1.059-0.53-1.65c-0.181-0.592-0.362-1.226-0.546-1.904
	c-0.183-0.679-0.366-1.403-0.549-2.174s-0.364-1.589-0.543-2.455c-0.18-0.867-0.356-1.784-0.529-2.75
	c-0.174-0.969-0.342-1.988-0.506-3.062c-0.163-1.073-0.321-2.201-0.473-3.384c-0.149-1.184-0.293-2.423-0.429-3.722
	c-0.109-1.052-0.188-2.044-0.238-2.982c-0.049-0.937-0.069-1.818-0.065-2.647c0.005-0.829,0.036-1.606,0.091-2.333
	C51.971,53.209,52.048,52.53,52.146,51.897z"/>
</svg>
