<?xml version="1.0" encoding="UTF-8"?>
<!-- Generator: Adobe Illustrator 16.0.0, SVG Export Plug-In . SVG Version: 6.00 Build 0)  -->
<!DOCTYPE svg PUBLIC "-//W3C//DTD SVG 1.1//EN" "http://www.w3.org/Graphics/SVG/1.1/DTD/svg11.dtd">
<svg version="1.1" id="Layer_1" xmlns="http://www.w3.org/2000/svg" xmlns:xlink="http://www.w3.org/1999/xlink" x="0px" y="0px" width="64px" height="64px" viewBox="0 0 64 64" enable-background="new 0 0 64 64" xml:space="preserve">
<path fill="#FFFFFF" d="M48.151,24.011c0.155-0.292,0.181-0.637,0.072-0.949c-0.11-0.314-0.346-0.564-0.648-0.696  c-0.937-0.407-2.112-0.568-3.243-0.494c0.371-0.91,0.733-2.058,0.94-3.395c0.485-3.153,0.162-8.017-4.12-13.28  c-0.291-0.357-0.765-0.515-1.211-0.402c-0.447,0.111-0.789,0.472-0.876,0.926c-0.718,3.67-3.73,6.377-10.4,9.336  c-5.098,2.262-13.558,8.691-12.921,18.429c0.333,5.062,1.618,10.819,8.442,15.311c0.231,2.852,0.724,6.02,1.591,9.523l0.022-0.006  c0.121,0.527,0.57,0.928,1.134,0.928c0.655,0,1.186-0.53,1.186-1.187c0-0.106-0.035-0.202-0.061-0.301l0.025-0.006  c-0.726-2.931-1.152-5.587-1.399-8.031c0.906,0.199,2.066,0.376,3.399,0.376c3.561,0,8.568-1.256,12.214-7.231  c0.245-0.404,0.23-0.912-0.04-1.3c-0.271-0.386-0.745-0.579-1.207-0.483c-0.878,0.175-1.739,0.34-2.551,0.492  c2.806-1.973,6.117-4.616,8.011-7.22c0.226-0.311,0.288-0.712,0.167-1.077s-0.417-0.648-0.784-0.76  c-1.174-0.355-2.499-0.546-3.741-0.645C43.902,30.333,46.116,27.854,48.151,24.011z M37.302,33.27  c0.132,0.562,0.646,0.938,1.223,0.915c0.017-0.001,0.481-0.025,1.199-0.025c0.869,0,2.276,0.039,3.657,0.242  c-3.883,4.169-10.951,8.26-11.027,8.305c-0.498,0.287-0.723,0.887-0.53,1.428c0.19,0.539,0.738,0.867,1.303,0.779  c0.031-0.006,2.34-0.363,5.394-0.926c-2.252,2.479-5.077,3.731-8.436,3.731c-1.528,0-2.806-0.273-3.592-0.495  c-0.56-11.533,3.531-16.976,3.583-17.042c0.406-0.512,0.322-1.258-0.188-1.667c-0.511-0.41-1.262-0.328-1.671,0.187  c-0.231,0.291-4.388,5.672-4.185,17.057c-4.67-3.711-5.636-8.144-5.917-12.427c-0.553-8.448,7.29-14.226,11.512-16.1  c6.106-2.711,9.5-5.344,11.02-8.689c5.024,7.814,0.733,13.984,0.535,14.258c-0.307,0.423-0.303,0.997,0.012,1.415  c0.315,0.418,0.865,0.579,1.354,0.404c0.012-0.004,1.099-0.385,2.352-0.385c0.135,0,0.269,0.004,0.396,0.013  c-3.518,5.924-7.273,7.646-7.307,7.661C37.457,32.131,37.17,32.708,37.302,33.27z"/>
</svg>