<?xml version="1.0" encoding="UTF-8"?>
<!-- Generator: Adobe Illustrator 16.0.0, SVG Export Plug-In . SVG Version: 6.00 Build 0)  -->
<!DOCTYPE svg PUBLIC "-//W3C//DTD SVG 1.1//EN" "http://www.w3.org/Graphics/SVG/1.1/DTD/svg11.dtd">
<svg version="1.1" id="Layer_1" xmlns="http://www.w3.org/2000/svg" xmlns:xlink="http://www.w3.org/1999/xlink" x="0px" y="0px" width="64px" height="64px" viewBox="0 0 64 64" enable-background="new 0 0 64 64" xml:space="preserve">
<g>
	<path fill="#FFFFFF" d="M15.03,45.994c-3.203,0-5.202-0.43-6.11-1.314c-0.953-0.93-1.377-2.041-1.194-3.131   c0.153-0.912,0.798-2.219,3.002-3.254c0.423-0.199,0.884-0.41,1.373-0.635c2.739-1.252,6.489-2.969,8.717-4.967   c2.917-2.617,8.253-7.776,8.707-8.479c0.143-0.219,1.15-1.664,2.689-1.664c0.351,0,0.694,0.077,1.026,0.227   c1.012,0.462,4.648,1.622,7.242,1.622c0.531,0,0.978-0.05,1.326-0.147c2.152-0.607,3.157-2.14,3.287-2.964   c0.195-1.267,0.881-2.806,1.916-3.194c0.156-0.06,0.326-0.09,0.502-0.09c1.375,0,2.584,1.808,2.922,2.362   c0.769,1.256,3.123,6.119,3.631,7.708c0.207,0.644,0.388,1.025,0.547,1.362c0.188,0.393,0.363,0.765,0.465,1.328   c0.107,0.598,0.236,0.711,0.236,0.712c0.229,0.053,0.646,0.237,0.861,0.842c0.225,0.63,0.189,1.792-0.188,2.29   c-0.326,0.433-3.648,3.11-6.704,3.949c-0.567,0.155-1.649,0.471-3.066,0.883c-6.142,1.789-17.571,5.117-22.24,5.806   C20.69,45.729,17.513,45.994,15.03,45.994z M32.213,24.28c-0.541,0-1.106,0.673-1.217,0.84c-0.453,0.877-7.028,7.068-9.025,8.86   c-2.423,2.172-6.312,3.951-9.151,5.252c-0.482,0.221-0.938,0.43-1.356,0.627c-1.192,0.559-1.914,1.262-2.034,1.975   c-0.111,0.66,0.316,1.238,0.695,1.605c0.199,0.193,1.14,0.826,4.904,0.826c2.401,0,5.49-0.262,8.696-0.73   c4.551-0.67,16.341-4.104,22.007-5.754c1.43-0.414,2.521-0.732,3.093-0.889c2.431-0.668,5.153-2.76,5.737-3.289   c0.025-0.15,0.035-0.395,0.015-0.562c-0.927-0.428-1.122-1.528-1.2-1.969c-0.061-0.336-0.16-0.545-0.326-0.893   c-0.174-0.367-0.389-0.823-0.631-1.577c-0.428-1.341-2.695-6.082-3.46-7.334c-0.619-1.014-1.26-1.5-1.464-1.535   c-0.066,0.084-0.54,0.835-0.691,1.821c-0.242,1.556-1.763,3.583-4.527,4.363c-0.502,0.141-1.104,0.212-1.795,0.212   c-2.838,0-6.646-1.177-7.959-1.778C32.417,24.304,32.315,24.28,32.213,24.28z"/>
	<path fill="#FFFFFF" d="M37.573,25.683c-0.443,0-0.821-0.34-0.86-0.79c-0.145-1.662-0.984-2.512-1.475-2.871   c-0.492-0.361-0.897-0.426-1.006-0.404c-0.442,0.39-1.605,1.808-2.008,2.316c-0.296,0.375-0.838,0.438-1.214,0.141   c-0.375-0.296-0.438-0.839-0.142-1.213c0.16-0.202,1.585-1.992,2.358-2.631c0.517-0.426,1.305-0.461,2.166-0.099   c1.325,0.556,2.82,2.06,3.043,4.612c0.041,0.475-0.312,0.894-0.787,0.936C37.624,25.682,37.598,25.683,37.573,25.683z"/>
	<path fill="#FFFFFF" d="M10.877,44.463c-1.152,0-1.962-0.119-2.35-0.322c-0.421-0.225-0.583-0.748-0.359-1.17   c0.222-0.416,0.735-0.58,1.152-0.367c0.645,0.242,5.234,0.396,12.816-1.855c7.213-2.141,15.891-5.484,18.055-6.393   c0.092-0.588,0.312-1.191,1.506-1.687c0.351-0.144,1.169-0.404,2.302-0.764c2.688-0.855,7.69-2.446,8.915-3.389   c0.373-0.289,0.921-0.221,1.212,0.157s0.222,0.92-0.157,1.212c-1.351,1.042-5.406,2.383-9.447,3.668   c-1.01,0.32-1.881,0.598-2.166,0.715c-0.361,0.15-0.44,0.244-0.44,0.244c-0.001,0.01-0.013,0.096-0.021,0.16   c-0.024,0.178-0.057,0.367-0.125,0.574c-0.076,0.225-0.242,0.408-0.459,0.508c-1.15,0.529-10.799,4.312-18.68,6.648   C17.628,43.887,13.419,44.463,10.877,44.463z"/>
</g>
</svg>