<?xml version="1.0" encoding="UTF-8"?>
<!-- Generator: Adobe Illustrator 16.0.0, SVG Export Plug-In . SVG Version: 6.00 Build 0)  -->
<!DOCTYPE svg PUBLIC "-//W3C//DTD SVG 1.1//EN" "http://www.w3.org/Graphics/SVG/1.1/DTD/svg11.dtd">
<svg version="1.1" id="Layer_1" xmlns="http://www.w3.org/2000/svg" xmlns:xlink="http://www.w3.org/1999/xlink" x="0px" y="0px" width="64px" height="64px" viewBox="0 0 64 64" enable-background="new 0 0 64 64" xml:space="preserve">
<g>
	<path fill="#FFFFFF" d="M52.212,10.065c-0.085-0.495-0.548-0.848-1.037-0.789c-0.573,0.057-13.53,1.481-23.189,12.762   c-4.068,0.717-11.583,5.616-16.333,11.864c-0.189,0.247-0.245,0.571-0.151,0.867c0.094,0.297,0.326,0.528,0.624,0.623   c2.31,0.731,7.369,2.65,8.189,2.963l4.099,2.842c-0.915,2.554-1.354,4.644-0.625,5.198c0.144,0.108,0.389,0.238,0.742,0.238   c0.752,0,2.405-1,4.336-2.401l3.587,3.347c0.495,0.672,3.724,5.01,5.053,7.051C37.678,54.889,37.963,55,38.273,55   c0.012,0,0.024,0,0.035,0c0.298,0,0.58-0.076,0.762-0.314c4.619-6.08,7.534-14.138,6.717-18.404   C54.464,23.811,52.312,10.639,52.212,10.065z M25.9,24.714c-2.378,3.352-4.299,7.225-5.728,11.54   c-1.417-0.535-4.131-1.55-6.158-2.249C17.694,29.577,22.5,26.218,25.9,24.714z M31.708,29.954c0.447-0.587,1.174-0.912,2.048-0.912   c0.866,0,1.766,0.322,2.534,0.906c0.804,0.612,1.364,1.431,1.578,2.305c0.195,0.801,0.069,1.551-0.358,2.112   c-1.049,1.383-9.151,8.195-12.143,9.952C26.26,40.965,30.658,31.335,31.708,29.954z M39.032,35.523   c0.782-1.028,1.03-2.351,0.695-3.724c-0.317-1.299-1.126-2.498-2.279-3.375c-2.354-1.792-5.755-1.616-7.264,0.371   c-0.064,0.084-3.084,5.676-5.066,10.56l-3.226-2.235c1.511-4.657,3.612-8.773,6.251-12.245   c7.849-10.324,19.033-12.983,22.297-13.556c0.318,3.297,0.746,14.785-7.103,25.108c-2.628,3.457-6.02,6.575-10.09,9.274   l-2.828-2.637C34.206,40.141,38.404,36.353,39.032,35.523z M38.341,52.502c-1.222-1.775-2.938-4.135-3.83-5.354   c3.728-2.499,6.911-5.343,9.483-8.477C43.738,42.196,41.765,47.617,38.341,52.502z"/>
	<path fill="#FFFFFF" d="M28.477,47.626c-1.158,1.523-6.348,2.707-7.286,2.226c-0.762-0.804-1.001-6.126,0.154-7.647   c0.357-0.469,0.265-1.138-0.204-1.494c-0.468-0.355-1.138-0.265-1.494,0.205c-1.739,2.288-1.586,9.234,0.232,10.616   c0.452,0.345,1.209,0.498,2.118,0.498c2.742,0,6.868-1.394,8.176-3.111c0.356-0.469,0.266-1.138-0.204-1.494   C29.502,47.068,28.833,47.157,28.477,47.626z"/>
	<path fill="#FFFFFF" d="M45.583,23.878c0.289,0,0.573-0.13,0.763-0.378c0.319-0.421,0.236-1.021-0.184-1.341l-5.268-4.004   c-0.418-0.318-1.019-0.238-1.341,0.183c-0.319,0.421-0.237,1.021,0.183,1.34l5.268,4.004C45.177,23.814,45.38,23.878,45.583,23.878   z"/>
</g>
</svg>